<svg width="109" height="90" viewBox="0 0 109 90" fill="none" xmlns="http://www.w3.org/2000/svg">
<path d="M32.0077 9.16789C32.0077 9.16789 32.4987 2.94583 37.5329 2.51044C42.5671 2.07505 37.6541 0 46.2339 0C54.8138 0 57.6137 6.48453 55.2209 8.62442C52.8281 10.7643 42.4552 13.9726 38.1575 13.4261C33.8598 12.8795 32.0077 9.16789 32.0077 9.16789Z" fill="#444C51"/>
<path d="M46.2588 0C37.6665 0 42.5764 2.07505 37.5578 2.51044C34.3601 2.78835 32.9959 5.3976 32.4272 7.26576C33.5758 8.22691 34.978 8.83997 36.467 9.03202C40.7616 9.57857 51.1345 6.35792 53.5304 4.23038C53.926 3.8709 54.1923 3.39263 54.2886 2.86863C52.7131 1.26911 50.0562 0 46.2588 0Z" fill="#859AA0"/>
<path d="M18.3346 19.3918C18.3346 19.3918 18.8256 13.1698 23.8567 12.7344C28.8878 12.299 23.9779 10.2239 32.5577 10.2239C41.1376 10.2239 43.9126 16.7085 41.5198 18.8453C39.127 20.9821 28.7697 24.1935 24.472 23.65C20.1743 23.1065 18.3346 19.3918 18.3346 19.3918Z" fill="#444C51"/>
<path d="M32.5733 10.2239C23.981 10.2239 28.894 12.2959 23.8722 12.7344C20.6777 13.0092 19.3135 15.6215 18.7417 17.4897C19.8914 18.4491 21.293 19.0619 22.7815 19.256C27.0792 19.8025 37.4521 16.5819 39.8449 14.4512C40.2409 14.0916 40.5082 13.6136 40.6062 13.0895C39.0307 11.4931 36.3738 10.2239 32.5733 10.2239Z" fill="#859AA0"/>
<path d="M32.3962 37.4775C32.3962 37.4775 27.6572 31.6445 23.5087 30.5113C19.3601 29.378 6.28678 33.8276 8.46204 38.8485C10.6373 43.8694 29.9319 43.1437 32.3962 37.4775Z" fill="#444C51"/>
<path d="M32.0978 38.0272C29.0431 36.3844 23.7075 34.6305 18.316 34.507C12.3371 34.3618 10.4974 38.0642 9.92566 40.4017C14.8418 43.4896 29.0928 42.5416 32.0978 38.0272Z" fill="#5A6266"/>
<path d="M58.4216 3.80117C57.8343 4.02967 55.2613 8.59663 59.2544 10.4401C63.2476 12.2835 74.3912 12.9104 75.5534 9.33463C76.7156 5.75888 74.0618 -2.34987 58.4216 3.80117Z" fill="#444C51"/>
<path d="M59.8293 5.26483C63.3284 6.87979 72.3247 7.55294 75.2768 5.28953C73.8505 2.11829 69.242 -0.453903 58.4216 3.80118C58.3397 3.84333 58.2677 3.90226 58.2103 3.9741C58.6214 4.54307 59.1813 4.98943 59.8293 5.26483Z" fill="#859AA0"/>
<path d="M75.9356 8.60281C74.7579 9.02585 71.1034 17.4465 75.9356 18.5365C80.7678 19.6265 88.0115 21.1581 89.7299 17.9899C91.4484 14.8218 89.0245 3.90925 75.9356 8.60281Z" fill="#444C51"/>
<g style="mix-blend-mode:screen" opacity="0.56">
<path d="M75.9357 8.60282C75.3141 8.82823 73.9841 11.3109 73.605 13.7534C74.0357 14.3666 74.6901 14.7887 75.4291 14.9299C80.2644 16.0199 87.5049 17.5484 89.2234 14.3833C89.488 13.8518 89.6443 13.2736 89.6833 12.6819C88.344 9.01042 84.3353 5.59215 75.9357 8.60282Z" fill="#859AA0"/>
</g>
<path d="M18.2383 22.2882C17.0637 22.7113 13.4061 31.1319 18.2383 32.2219C23.0705 33.3119 30.3141 34.8404 32.0326 31.6754C33.7511 28.5103 31.3272 17.6008 18.2383 22.2882Z" fill="#444C51"/>
<g style="mix-blend-mode:screen" opacity="0.56">
<path d="M18.2383 22.2882C17.6168 22.5137 16.2868 24.9963 15.9077 27.4388C16.3384 28.052 16.9928 28.4741 17.7318 28.6153C22.5671 29.7053 29.8107 31.2338 31.5292 28.0687C31.7917 27.5355 31.9469 26.9565 31.986 26.3642C30.6467 22.6928 26.6411 19.2776 18.2383 22.2882Z" fill="#859AA0"/>
</g>
<path d="M92.9151 18.8082C92.0544 19.5709 82.1041 19.5709 83.3377 23.6099C84.5714 27.6488 89.8294 27.6488 92.9151 29.0661C96.0009 30.4835 104.102 26.9942 102.371 23.0633C100.64 19.1325 92.9151 18.8082 92.9151 18.8082Z" fill="#444C51"/>
<path d="M94.9319 28.8191C94.1581 28.7759 86.8896 30.5853 88.0488 35.4456C89.2079 40.306 91.7778 42.6496 98.1762 41.2323C104.575 39.815 110.156 29.6435 94.9319 28.8191Z" fill="#444C51"/>
<path d="M0.370045 48.9181C0.370045 48.9181 -2.13772 56.3969 5.90454 59.2532C13.9468 62.1094 19.82 65.6327 23.3377 55.7793C26.8554 45.9259 18.5832 38.7034 11.8679 40.8031C5.15252 42.9029 0.370045 48.9181 0.370045 48.9181Z" fill="#636B70"/>
<path d="M0.621765 54.7263C1.86477 57.033 3.93128 58.2527 6.30542 59.0308C11.0817 60.6581 14.8977 62.6683 18.1762 62.0353C14.8604 63.3754 9.61182 61.0009 6.07236 59.6793C4.42226 59.0617 2.96484 58.2866 1.83991 56.9187C1.29611 56.2723 0.882545 55.528 0.621765 54.7263Z" fill="#3C4144"/>
<path d="M23.3408 55.7793C26.8585 45.9228 18.5863 38.7033 11.871 40.8031C9.32035 41.6535 6.94231 42.9479 4.84796 44.6259C7.92441 45.2435 11.1531 46.1142 13.1948 47.2722C17.4023 49.6622 17.4583 60.6828 20.4912 60.6766C21.5664 59.6545 22.5173 58.0828 23.3408 55.7793Z" fill="#6B797F"/>
<path d="M108.885 55.3809C107.897 62.6467 97.4117 61.4733 94.8853 61.3745C92.3589 61.2757 86.147 63.1191 85.224 56.3413C85.0941 55.396 85.0131 54.4447 84.9816 53.4911C84.9485 54.8747 85.0296 56.2586 85.224 57.6289C86.1563 64.4222 92.3713 62.5695 94.8853 62.6652C97.3993 62.7609 107.897 63.9374 108.885 56.6717C108.99 55.9054 109.022 55.1311 108.981 54.3588C108.965 54.6985 108.931 55.0413 108.885 55.3809Z" fill="#3C4144"/>
<path d="M85.224 57.632C86.1563 64.4068 92.3713 62.5726 94.8853 62.6652C97.3993 62.7579 107.897 63.9375 108.885 56.6717C109.873 49.4059 104.121 41.4608 98.1762 41.2323C92.2315 41.0038 83.3658 43.9836 85.224 57.632Z" fill="#56636B"/>
<path d="M99.6243 44.7278C100.002 43.6921 100.078 42.5717 99.8449 41.4948C99.3007 41.3436 98.7408 41.2555 98.1762 41.2323C92.2315 41.0007 83.3658 43.9836 85.224 57.6289C85.2676 57.9377 85.3235 58.2465 85.3887 58.5244C91.0973 54.2137 98.3253 48.2418 99.6243 44.7278Z" fill="#919DA3"/>
<path d="M97.1942 65.7161C97.1942 65.7161 93.6609 54.5997 74.8977 60.4204C56.1345 66.241 61.9829 76.5144 69.4596 82.2238C76.9363 87.9333 97.738 84.197 98.9624 77.6538C100.187 71.1106 97.1942 65.7161 97.1942 65.7161Z" fill="#545D63"/>
<path d="M98.9624 76.1469C97.7411 82.687 76.9363 86.4264 69.4596 80.7138C65.9294 78.0181 62.7629 74.3034 62.3775 70.5239C61.9269 74.8098 65.4602 79.1699 69.4596 82.2269C76.9363 87.9364 97.738 84.2 98.9624 77.6568C99.2051 76.3478 99.2989 75.0157 99.2421 73.6858C99.2076 74.5117 99.1141 75.3341 98.9624 76.1469Z" fill="#3C4144"/>
<path d="M93.6206 73.4697C94.8418 66.9296 91.8524 61.532 91.8524 61.532C91.6289 60.9232 91.3282 60.3452 90.9574 59.8121C87.5764 58.4843 82.4832 58.0705 74.8977 60.4296C59.0805 65.3301 60.7523 73.3987 66.147 79.2409C74.7952 83.1347 92.4925 79.491 93.6206 73.4697Z" fill="#859AA0"/>
<g style="mix-blend-mode:screen" opacity="0.56">
<path d="M84.5404 58.7374C81.8897 58.756 78.7076 59.2377 74.9071 60.4203C65.7368 63.2612 62.4459 67.1704 62.3496 71.092C65.4105 72.7409 69.8605 74.3343 75.0314 73.7074C82.2035 72.8428 90.1184 62.9431 84.5404 58.7374Z" fill="#859AA0"/>
</g>
<path d="M42.4708 63.1161C42.4708 63.1161 37.4397 55.1463 27.6199 56.2394C17.8002 57.3325 13.3782 57.4344 13.3782 63.1161C13.3782 68.7978 11.784 71.0828 14.8511 72.6113C17.9182 74.1398 36.2122 77.0887 39.7703 73.0498C43.3284 69.0108 42.4708 63.1161 42.4708 63.1161Z" fill="#545D63"/>
<path d="M12.9649 69.4184C13.0456 70.8326 13.403 71.6725 14.6864 72.321C17.1507 73.5778 35.7989 76.715 39.7703 73.0497C36.5354 77.1288 21.2619 75.0229 16.2526 73.3585C13.9841 72.6113 12.8002 71.7868 12.9649 69.4184Z" fill="#3C4144"/>
<g style="mix-blend-mode:screen" opacity="0.53">
<path d="M27.6199 56.2394C20.3359 57.0484 16.0226 57.3171 14.2824 59.7163C16.5695 64.2493 20.3079 68.7267 26.3365 70.0669C33.173 71.583 38.7324 68.6742 42.5453 65.4505C42.5888 64.6717 42.5638 63.8906 42.4707 63.1161C42.4707 63.1161 37.4397 55.1463 27.6199 56.2394Z" fill="#545D63"/>
</g>
<g style="mix-blend-mode:screen" opacity="0.56">
<path d="M27.6199 56.2394C23.6392 56.6809 20.5472 56.9619 18.2787 57.5177C18.8753 59.6792 20.3638 61.6493 23.5615 62.3039C30.1432 63.6472 39.155 66.7597 42.3993 62.9925C41.7467 62.0476 36.7529 55.2234 27.6199 56.2394Z" fill="#859AA0"/>
</g>
<path d="M34.3943 72.6298C33.9903 72.7101 26.3924 75.6806 27.8467 81.3191C29.3011 86.9575 34.705 88.7114 41.4608 89.4494C48.2165 90.1874 53.5801 89.6378 54.6336 84.6478C55.687 79.6578 54.5559 68.6557 34.3943 72.6298Z" fill="#546066"/>
<path d="M54.6926 83.8079C53.6236 88.7979 48.2756 89.3506 41.5198 88.6126C34.7641 87.8746 29.3601 86.1145 27.9058 80.4792C27.7848 80.0174 27.7232 79.5422 27.7225 79.0649C27.6017 79.816 27.6409 80.584 27.8374 81.3191C29.2917 86.9544 34.6957 88.7114 41.4515 89.4494C48.2072 90.1874 53.5708 89.6378 54.6243 84.6478C54.7645 83.9836 54.8507 83.3093 54.8822 82.6314C54.8449 83.0637 54.7796 83.4435 54.6926 83.8079Z" fill="#3C4144"/>
<path d="M34.3943 72.6298C34.0494 72.6977 28.546 74.8407 27.7567 78.9198C29.8325 83.1563 34.7393 84.6076 40.7088 85.2623C47.4646 86.0003 52.8126 85.4506 53.8785 80.4575C54.0533 79.6328 54.1459 78.793 54.155 77.9502C52.4521 73.7044 47.3527 70.0761 34.3943 72.6298Z" fill="#7E929B"/>
<path d="M34.3943 72.6298C34.1239 72.6823 30.6653 74.0163 28.8225 76.5576C31.3551 78.7407 35.2116 79.6671 39.6522 80.1488C46.2899 80.8744 51.5665 80.3557 52.7628 75.6035C50.1929 72.5372 44.8511 70.5702 34.3943 72.6298Z" fill="#859AA0"/>
<path d="M62.1507 75.3749C62.1507 75.3749 49.9847 75.5139 54.1581 81.5506C58.3315 87.5874 75.165 86.238 75.9418 82.1682C76.7187 78.0984 72.94 71.5274 62.1507 75.3749Z" fill="#6D7C84"/>
<path d="M75.9947 80.3001C75.9954 80.6657 75.9621 81.0306 75.8952 81.3901C75.1184 85.4506 58.2818 86.8124 54.1084 80.7725C53.7301 80.2578 53.4566 79.6746 53.3036 79.0557C53.2383 79.7504 53.4838 80.578 54.1643 81.563C58.3377 87.6091 75.1712 86.2504 75.9481 82.1806C76.0634 81.5601 76.0792 80.9254 75.9947 80.3001Z" fill="#3C4144"/>
<path d="M75.948 80.0036C75.2737 76.2179 71.1438 72.1697 62.1569 75.3718C60.6027 75.4117 59.0561 75.602 57.5391 75.94C57.6738 76.2016 57.8254 76.4543 57.9928 76.6965C60.9915 81.0412 70.541 81.563 75.948 80.0036Z" fill="#9AB0B5"/>
<path d="M28.4683 20.9419C21.6286 27.7352 21.1563 39.8335 21.1563 39.8335L22.6386 41.433L21.1563 42.2297C21.1563 42.2297 19.3881 50.2211 25.5068 59.6545C31.6255 69.088 46.4173 74.5196 46.4173 74.5196L48.4559 73.0806L49.3136 75.6374C49.3136 75.6374 67.9742 77.2369 78.111 69.2455C88.2477 61.2541 91.1377 50.8603 91.1377 50.8603L88.8008 48.2109L91.1377 46.704C91.1377 46.704 96.7623 30.5483 81.4826 17.6008C66.2029 4.65341 51.7219 6.89211 51.7219 6.89211L50.7554 10.0881L49.0556 6.7439C49.0556 6.7439 35.3048 14.1486 28.4683 20.9419Z" fill="#3D1F04"/>
<path d="M41.986 13.1976C41.986 13.1976 29.907 19.0429 26.0475 32.3084C22.1879 45.5739 21.8648 45.2558 24.2793 52.29C26.6938 59.3241 41.3303 73.0683 54.0369 73.0683C66.7436 73.0683 81.0724 67.4761 85.0842 55.1586C89.096 42.8411 90.8766 30.2241 85.0842 24.4683C79.2917 18.7125 68.6765 9.77002 60.311 9.77002C51.9456 9.77002 45.513 11.456 41.986 13.1976Z" fill="#DB9645"/>
<path d="M54.0369 68.9985C42.8654 68.9985 29.9505 56.2023 28.1575 50.9746C26.2184 45.3269 26.3396 45.8456 29.9816 33.4386C33.2507 22.2111 46.0693 16.6189 46.0693 16.6189C48.9779 15.5166 55.0655 13.8398 60.311 13.8398C65.4167 13.8398 73.8008 19.0182 82.188 27.3524C85.8735 31.0146 85.5068 40.692 81.1905 53.908C77.7815 64.3327 65.0997 68.9985 54.0369 68.9985Z" fill="#E2882D"/>
<path d="M54.0369 67.6429C43.6205 67.6429 31.1034 55.3593 29.4471 50.5392C27.6914 45.4226 27.7473 45.8364 31.293 33.8215C34.3477 23.3227 46.495 17.9158 46.6193 17.8603C49.0121 16.9555 55.0469 15.1954 60.311 15.1954C64.9971 15.1954 73.2041 20.346 81.2246 28.3127C84.4844 31.5519 83.9841 40.973 79.8884 53.4912C76.697 63.2674 64.6056 67.6429 54.0369 67.6429Z" fill="#DB9645"/>
<path d="M54.0369 62.2144C46.3831 62.2144 35.7461 51.8824 34.6149 48.7822C33.4372 45.3855 33.4714 45.6943 36.5323 35.3469C38.7075 27.8588 47.6168 23.3999 48.7324 22.8657C51.1687 21.9733 56.293 20.6239 60.311 20.6239C62.0916 20.6239 68.5988 23.44 77.362 32.1509C77.8592 32.8673 79.0463 38.5058 74.6957 51.8114C72.362 58.9598 62.3527 62.2144 54.0369 62.2144Z" fill="#E2882D"/>
<path d="M54.0369 60.8588C47.2004 60.8588 36.8958 51.0456 35.9014 48.319C34.8728 45.3516 34.9443 45.5029 37.8436 35.7298C39.8666 28.779 48.3626 24.5486 49.3228 24.0854C51.5727 23.264 56.4701 21.9733 60.311 21.9733C61.6099 21.9733 67.7691 24.5825 76.2619 32.9692C76.6317 33.9388 77.2439 39.6205 73.3968 51.3883C71.2712 57.8976 61.871 60.8588 54.0369 60.8588Z" fill="#3D1F04"/>
<path d="M54.0369 59.5033C47.999 59.5033 38.055 50.2397 37.1848 47.8558C36.3085 45.3361 36.3707 45.4689 39.1519 36.1219C41.0164 29.7331 49.0121 25.7559 49.9164 25.3144C51.9487 24.5795 56.7063 23.3381 60.311 23.3381C61.0009 23.3814 66.6814 25.4996 75.0438 33.6887C75.3328 35.0844 75.485 40.6148 72.0978 50.9807C70.2706 56.5729 61.6286 59.5033 54.0369 59.5033Z" fill="#DB9645"/>
<path d="M54.8169 31.9317C54.8169 31.9317 49.8791 30.6255 49.0556 37.8573C48.2321 45.0891 42.4272 41.8715 46.0102 48.9922C49.5932 56.1128 50.3017 49.8382 57.8001 48.9922C65.2986 48.1461 74.8542 39.6637 68.7107 36.6129C62.5671 33.5621 54.8169 31.9317 54.8169 31.9317Z" fill="#E2882D"/>
<path d="M41.9705 29.588L41.1221 30.6533L51.4173 37.8573L41.9705 29.588Z" fill="#3D1F04"/>
<path d="M46.4018 25.864L43.3036 20.9419L45.1898 26.9478L46.4018 25.864Z" fill="#3D1F04"/>
<path d="M87.9431 48.2634C88.0643 48.3097 88.1793 48.4827 88.3253 48.9922V47.6335C88.2073 48.1059 88.0643 48.248 87.9431 48.2634Z" fill="#3D1F04"/>
<path d="M87.8188 48.248C87.8557 48.261 87.8948 48.2663 87.9338 48.2634C87.8973 48.2491 87.8579 48.2438 87.8188 48.248Z" fill="#3D1F04"/>
<path d="M59.4316 40.8834C59.6181 38.7219 58.8101 36.4585 56.0444 37.0946L50.7616 10.0881L54.9039 37.7523C54.0096 38.5764 53.2773 39.5586 52.7442 40.6487L22.6448 41.4207L52.2812 41.8746C51.7871 43.8848 53.0053 43.8508 54.7672 44.3449L48.4496 73.0621L56.0071 44.6074C56.621 44.6172 57.2306 44.5048 57.8002 44.277C58.4217 44.0732 58.9717 43.1221 59.2545 41.9734C63.8536 42.9276 87.679 48.2109 87.8188 48.2418C87.679 48.214 77.6293 46.2686 59.4316 40.8834Z" fill="#3D1F04"/>
<path d="M78.9313 18.3296H78.9686C78.9872 18.2925 78.95 18.3111 78.9313 18.3296Z" fill="#3D1F04"/>
<path d="M77.0202 19.5277C77.1569 19.4412 79.1395 18.2926 79.1395 18.2926L78.8288 16.9555C78.4782 17.0151 78.1535 17.1775 77.8965 17.4218L70.6746 24.0854C70.8114 23.9989 77.4459 19.2251 77.0202 19.5277Z" fill="#3D1F04"/>
<path d="M81.6597 20.2286L80.4353 19.6296L77.1258 27.834L81.6597 20.2286Z" fill="#3D1F04"/>
<path d="M32.8685 65.5339L37.7598 57.0175L31.7343 64.7835L32.8685 65.5339Z" fill="#3D1F04"/>
<path d="M43.5739 54.9517L44.6957 55.7268L49.0556 48.3128L43.5739 54.9517Z" fill="#3D1F04"/>
<path d="M26.1034 58.3113C26.0669 58.3256 26.034 58.3477 26.0071 58.3762C26.0439 58.3623 26.0769 58.3401 26.1034 58.3113Z" fill="#3D1F04"/>
<path d="M52.1258 44.8575C53.4465 46.5836 55.5721 47.7292 57.1942 45.4133L79.3446 61.918L57.592 44.1596C57.6973 42.9511 57.5772 41.7336 57.2377 40.5684L79.0432 19.9415L56.7529 39.3549C55.7647 37.533 54.8884 38.3699 53.2321 39.1758L38.5491 13.6638L52.1476 39.8057C51.6868 40.2093 51.3109 40.6993 51.0413 41.2478C50.7119 41.819 50.9512 42.8874 51.5199 43.928C47.4614 46.2841 26.2246 58.2434 26.1003 58.3113C26.2246 58.2434 34.991 52.9909 52.1258 44.8575Z" fill="#3D1F04"/>
<path d="M52.8934 74.5721L52.8778 74.606C52.8685 74.6462 52.8809 74.6091 52.8934 74.5721Z" fill="#3D1F04"/>
<path d="M27.4459 36.3936C28.3129 29.6775 32.5112 21.9146 39.3632 18.3049C34.2949 22.0536 30.0251 27.4234 27.4459 36.3936Z" fill="#AF6623"/>
<path d="M81.0475 31.3326C82.2905 34.862 82.2035 40.3554 80.1152 44.5209C80.8673 40.9019 81.5789 37.4898 81.0475 31.3326Z" fill="#AF6623"/>
<path d="M52.3247 65.5339C58.9872 64.8082 69.4782 63.4156 74.7952 59.5033C70.0904 64.1413 58.9157 65.7531 52.3247 65.5339Z" fill="#AF6623"/>
<path d="M56.5323 16.7486C59.4534 16.2422 64.6802 16.8104 66.4329 19.1695C64.1644 17.6009 59.9754 17.2612 56.5323 16.7486Z" fill="#AF6623"/>
<path d="M56.8399 55.7268C61.9704 54.4361 67.9369 52.3301 70.0748 47.6335C68.953 52.7285 61.9704 55.5137 56.8399 55.7268Z" fill="#AF6623"/>
<path d="M55.9357 46.7658C59.0009 46.7658 61.4857 44.2966 61.4857 41.2508C61.4857 38.205 59.0009 35.7359 55.9357 35.7359C52.8705 35.7359 50.3856 38.205 50.3856 41.2508C50.3856 44.2966 52.8705 46.7658 55.9357 46.7658Z" fill="#3D1F04"/>
</svg>
